<?xml version="1.0" encoding="utf-8"?>
<!-- Generator: Adobe Illustrator 18.0.0, SVG Export Plug-In . SVG Version: 6.00 Build 0)  -->
<!DOCTYPE svg PUBLIC "-//W3C//DTD SVG 1.1//EN" "http://www.w3.org/Graphics/SVG/1.1/DTD/svg11.dtd">
<svg version="1.1" id="Layer_1" xmlns="http://www.w3.org/2000/svg" xmlns:xlink="http://www.w3.org/1999/xlink" x="0px" y="0px"
	 viewBox="0 0 64 64" enable-background="new 0 0 64 64" xml:space="preserve">
<g>
	<g>
		<g>
			<path fill="#76E2FF" d="M32,0c17.7,0,32,14.3,32,32S49.7,64,32,64S0,49.7,0,32S14.3,0,32,0z"/>
		</g>
	</g>
	<g>
		<g>
			<rect x="30.2" y="34.3" fill="#E6FAFF" width="2" height="20"/>
		</g>
	</g>
	<g>
		<g>
			<ellipse fill="#E6FAFF" cx="31.2" cy="54.4" rx="9.1" ry="1.3"/>
		</g>
	</g>
	<g>
		<g>
			<path fill="#E6FAFF" d="M31.2,38.3L31.2,38.3c-7,0-12.8-5-12.8-12.8l2.1-14.2h21.3L44,25.5C44,33.3,38.2,38.3,31.2,38.3z"/>
		</g>
	</g>
	<g>
		<g>
			<path fill="#C94357" d="M21.7,17.4l-0.9,7c0,7.2,4.7,11.8,10.3,11.8s10.3-4.6,10.3-11.8l-0.9-7H21.7z"/>
		</g>
	</g>
	<g>
		<g>
			<ellipse fill="#E05872" cx="31.1" cy="17.4" rx="9.4" ry="1.5"/>
		</g>
	</g>
	<g>
		<g>
			<ellipse fill="#C9F0F7" cx="31.2" cy="11.3" rx="10.7" ry="1.7"/>
		</g>
	</g>
	<g opacity="0.2">
		<g>
			<path fill="#FFFFFF" d="M34.3,13l1.8,11.9c0,6.8-1.4,11.4-6.4,12.5c5.7-1.1,10.1-5.7,10.1-12.5l-1.8-12.3
				C36.8,12.8,35.6,12.9,34.3,13z"/>
		</g>
	</g>
</g>
</svg>
