<?xml version="1.0" encoding="UTF-8" standalone="no"?>
<!-- Created with Inkscape (http://www.inkscape.org/) -->

<svg
   xmlns:dc="http://purl.org/dc/elements/1.1/"
   xmlns:cc="http://creativecommons.org/ns#"
   xmlns:rdf="http://www.w3.org/1999/02/22-rdf-syntax-ns#"
   xmlns:svg="http://www.w3.org/2000/svg"
   xmlns="http://www.w3.org/2000/svg"
   xmlns:sodipodi="http://sodipodi.sourceforge.net/DTD/sodipodi-0.dtd"
   xmlns:inkscape="http://www.inkscape.org/namespaces/inkscape"
   version="1.1"
   id="svg3680"
   xml:space="preserve"
   width="1066.6667"
   height="1066.6667"
   viewBox="0 0 1066.6667 1066.6667"
   sodipodi:docname="WineTrip No Text.svg"
   inkscape:version="0.92.1 r15371"><metadata
     id="metadata3686"><rdf:RDF><cc:Work
         rdf:about=""><dc:format>image/svg+xml</dc:format><dc:type
           rdf:resource="http://purl.org/dc/dcmitype/StillImage" /><dc:title></dc:title></cc:Work></rdf:RDF></metadata><defs
     id="defs3684"><clipPath
       clipPathUnits="userSpaceOnUse"
       id="clipPath3696"><path
         d="M 0,800 H 800 V 0 H 0 Z"
         id="path3694"
         inkscape:connector-curvature="0" /></clipPath><clipPath
       clipPathUnits="userSpaceOnUse"
       id="clipPath3828"><path
         d="M 0,800 H 800 V 0 H 0 Z"
         id="path3826"
         inkscape:connector-curvature="0" /></clipPath><linearGradient
       x1="0"
       y1="0"
       x2="1"
       y2="0"
       gradientUnits="userSpaceOnUse"
       gradientTransform="matrix(24.560921,4.5618353,4.5618353,-24.560921,416.2312,600.11926)"
       spreadMethod="pad"
       id="linearGradient3858"><stop
         style="stop-opacity:1;stop-color:#cc0d2d"
         offset="0"
         id="stop3854" /><stop
         style="stop-opacity:1;stop-color:#8f000b"
         offset="1"
         id="stop3856" /></linearGradient><clipPath
       clipPathUnits="userSpaceOnUse"
       id="clipPath3868"><path
         d="M 0,800 H 800 V 0 H 0 Z"
         id="path3866"
         inkscape:connector-curvature="0" /></clipPath><linearGradient
       x1="0"
       y1="0"
       x2="1"
       y2="0"
       gradientUnits="userSpaceOnUse"
       gradientTransform="matrix(15.350575,2.8511469,2.8511469,-15.350575,429.20288,571.11359)"
       spreadMethod="pad"
       id="linearGradient3890"><stop
         style="stop-opacity:1;stop-color:#cc0d2d"
         offset="0"
         id="stop3886" /><stop
         style="stop-opacity:1;stop-color:#8f000b"
         offset="1"
         id="stop3888" /></linearGradient><clipPath
       clipPathUnits="userSpaceOnUse"
       id="clipPath3900"><path
         d="M 0,800 H 800 V 0 H 0 Z"
         id="path3898"
         inkscape:connector-curvature="0" /></clipPath><linearGradient
       x1="0"
       y1="0"
       x2="1"
       y2="0"
       gradientUnits="userSpaceOnUse"
       gradientTransform="matrix(-166.07109,-350.13321,-350.13321,166.07109,479.16895,526.08099)"
       spreadMethod="pad"
       id="linearGradient3922"><stop
         style="stop-opacity:1;stop-color:#cc0d2d"
         offset="0"
         id="stop3918" /><stop
         style="stop-opacity:1;stop-color:#8f000b"
         offset="1"
         id="stop3920" /></linearGradient><clipPath
       clipPathUnits="userSpaceOnUse"
       id="clipPath3932"><path
         d="M 0,800 H 800 V 0 H 0 Z"
         id="path3930"
         inkscape:connector-curvature="0" /></clipPath><linearGradient
       x1="0"
       y1="0"
       x2="1"
       y2="0"
       gradientUnits="userSpaceOnUse"
       gradientTransform="matrix(465.69104,86.495361,86.495361,-465.69104,365.02228,611.76331)"
       spreadMethod="pad"
       id="linearGradient3954"><stop
         style="stop-opacity:1;stop-color:#cc0d2d"
         offset="0"
         id="stop3950" /><stop
         style="stop-opacity:1;stop-color:#8f000b"
         offset="1"
         id="stop3952" /></linearGradient><clipPath
       clipPathUnits="userSpaceOnUse"
       id="clipPath3964"><path
         d="M 0,800 H 800 V 0 H 0 Z"
         id="path3962"
         inkscape:connector-curvature="0" /></clipPath></defs><sodipodi:namedview
     pagecolor="#ffffff"
     bordercolor="#666666"
     borderopacity="1"
     objecttolerance="10"
     gridtolerance="10"
     guidetolerance="10"
     inkscape:pageopacity="0"
     inkscape:pageshadow="2"
     inkscape:window-width="2560"
     inkscape:window-height="1377"
     id="namedview3682"
     showgrid="false"
     inkscape:zoom="1.1343749"
     inkscape:cx="645.55744"
     inkscape:cy="553.10321"
     inkscape:window-x="-8"
     inkscape:window-y="-8"
     inkscape:window-maximized="1"
     inkscape:current-layer="g3688" /><g
     id="g3688"
     inkscape:groupmode="layer"
     inkscape:label="12038-NNVJIN"
     transform="matrix(1.3333333,0,0,-1.3333333,0,1066.6667)"><g
       id="g3822"><g
         id="g3824"
         clip-path="url(#clipPath3828)"><g
           id="g3830"
           transform="translate(766.0306,640.1071)"><path
             d="m 0,0 c -19.02,7.572 -27.446,16.836 -32.479,22.37 -2.141,2.354 -3.689,4.055 -5.577,5.03 -0.4,0.206 -1.076,0.713 -1.791,1.248 -3.444,2.579 -9.207,6.894 -20.877,6.894 -2.469,0 -5.137,-0.195 -7.929,-0.578 -18.499,-2.543 -119.449,-16.74 -120.467,-16.883 l -15.064,-3.04 c 0,0 -29.41,-4.088 -30.36,-4.266 l -0.121,-0.023 c -2.731,-0.511 -3.758,-3.931 -1.722,-5.82 1.046,-0.97 2.13,-1.687 3.243,-2.074 1.798,-0.625 3.81,-0.942 5.981,-0.942 0.739,0 1.435,0.037 2.064,0.093 1.449,-1.167 3.497,-2.266 6.095,-2.3 l 0.153,-0.001 c 3.207,0 11.881,1.538 15.463,2.199 4.52,0.835 7.001,2.608 8.354,4.396 l 7.514,1.522 c 4.508,0.633 102.134,14.362 120.28,16.856 2.326,0.319 4.517,0.482 6.516,0.482 8.215,0 11.786,-2.674 14.655,-4.823 1.045,-0.782 2.033,-1.523 3.165,-2.118 0.494,-0.36 1.741,-1.73 2.747,-2.836 5.266,-5.791 15.072,-16.57 36.317,-25.03 7.769,-3.092 20.493,-4.707 37.809,-4.814 V -4.082 C 14.121,-3.957 4.547,-1.81 0,0"
             style="fill:#4b4b4b;fill-opacity:1;fill-rule:nonzero;stroke:none"
             id="path3832"
             inkscape:connector-curvature="0" /></g><g
           id="g3834"
           transform="translate(761.3546,799.927)"><path
             d="m 0,0 c -8.51,-3.242 -16.764,-7.381 -23.212,-12.628 -17.735,-14.436 -23.859,-27.658 -27.15,-34.761 -0.628,-1.357 -1.406,-3.037 -1.77,-3.529 -0.901,-0.908 -1.623,-1.909 -2.385,-2.969 -2.521,-3.502 -5.971,-8.297 -18.898,-10.486 -18.06,-3.057 -115.314,-19.21 -119.806,-19.956 l -7.621,-0.8 c -1.573,1.099 -3.783,1.856 -6.732,1.856 -0.804,0 -1.665,-0.056 -2.558,-0.165 -4.578,-0.56 -12.688,-1.639 -15.557,-2.581 -2.468,-0.811 -4.093,-2.473 -5.126,-4.021 -2.122,-0.468 -4.962,-1.394 -7.421,-3.221 -1.619,-1.203 -2.836,-3.38 -3.736,-6.1 -0.562,-1.698 0.837,-3.409 2.613,-3.196 0.678,0.081 2.028,0.102 2.43,0.655 0.509,0.7 29.975,5.695 29.975,5.695 l 14.972,1.571 0.309,0.042 c 1.014,0.169 101.581,16.871 119.991,19.988 17.128,2.9 22.424,10.259 25.589,14.656 0.522,0.725 1.016,1.411 1.335,1.727 1.51,1.497 2.476,3.583 3.814,6.471 3.145,6.789 8.408,18.151 24.284,31.073 15.027,12.231 42.901,17.959 55.305,19.99 l 0,0.689 z"
             style="fill:#4b4b4b;fill-opacity:1;fill-rule:nonzero;stroke:none"
             id="path3836"
             inkscape:connector-curvature="0" /></g><g
           id="g3838"
           transform="translate(434.7892,259.3348)"><path
             d="m 0,0 c 10.37,7.214 23.446,16.683 32.464,25.25 9.018,8.567 16.683,16.683 21.192,25.7 4.509,9.018 4.509,18.487 2.705,34.719 -1.804,16.232 -9.018,48.696 -15.33,75.749 -6.169,26.437 -12.174,40.58 -12.174,40.58 0,0 -0.377,0.078 -1.045,0.21 2.038,-5.541 6.175,-17.773 10.394,-36.063 C 44.275,139.836 51.211,108.266 52.945,92.48 54.679,76.695 54.679,67.487 50.344,58.717 46.009,49.948 38.64,41.017 29.97,32.686 21.301,24.355 10.531,16.652 3.245,11.245 -4.17,5.743 -12.931,1.444 -32.322,1.283 c -18.333,-0.152 -27.825,4.53 -35.175,9.962 -7.297,5.393 -18.056,13.11 -26.725,21.441 -8.67,8.331 -16.039,17.262 -20.374,26.031 -4.335,8.77 -4.335,17.978 -2.601,33.763 1.734,15.786 8.67,47.356 14.739,73.665 4.218,18.29 8.356,30.522 10.394,36.063 -0.669,-0.132 -1.045,-0.21 -1.045,-0.21 0,0 -6.005,-14.143 -12.174,-40.58 -6.312,-27.053 -13.526,-59.517 -15.33,-75.749 -1.804,-16.232 -1.804,-25.701 2.705,-34.719 4.509,-9.017 12.174,-17.133 21.192,-25.7 9.018,-8.567 22.094,-18.036 32.464,-25.25 10.37,-7.214 16.232,-8.567 20.741,-15.33 4.509,-6.764 4.058,-9.018 4.058,-16.232 0,-7.214 1.353,-70.79 0.902,-81.16 -0.451,-10.37 -2.255,-25.25 -6.313,-31.562 -4.058,-6.313 -7.665,-12.625 -16.232,-14.429 -8.567,-1.803 -21.832,-3.668 -27.693,-5.472 -5.862,-1.803 -13.338,-3.545 -15.141,-7.152 -1.804,-3.608 -3.607,-9.469 3.607,-13.978 7.214,-4.509 19.418,-8.379 28.406,-9.92 13.8,-2.365 33.289,-2.662 37.964,-2.7 v -0.005 c 0,0 0.199,0 0.546,0.002 0.314,-0.002 0.492,-0.002 0.492,-0.002 v 0.005 c 4.951,0.033 26.668,0.315 40.58,2.7 8.988,1.541 21.192,5.411 28.406,9.92 7.214,4.509 5.411,10.37 3.607,13.978 -1.803,3.607 -7.453,6.034 -14.879,8.115 -5.905,1.655 -19.388,2.706 -27.955,4.509 -8.567,1.804 -12.174,8.116 -16.232,14.429 -4.058,6.312 -5.862,21.192 -6.313,31.562 -0.451,10.37 0.902,73.946 0.902,81.16 0,7.214 -0.451,9.468 4.058,16.232 C -16.232,-8.567 -10.37,-7.214 0,0"
             style="fill:#3e3e3e;fill-opacity:1;fill-rule:nonzero;stroke:none"
             id="path3840"
             inkscape:connector-curvature="0" /></g></g></g><g
       id="g3842"><g
         id="g3844"><g
           id="g3850"><g
             id="g3852"><path
               d="m 420.723,602.689 c 0,-5.159 4.182,-9.342 9.341,-9.342 v 0 c 5.16,0 9.341,4.183 9.341,9.342 v 0 c 0,5.158 -4.181,9.341 -9.341,9.341 v 0 c -5.159,0 -9.341,-4.183 -9.341,-9.341"
               style="fill:url(#linearGradient3858);stroke:none"
               id="path3860"
               inkscape:connector-curvature="0" /></g></g></g></g><g
       id="g3862"><g
         id="g3864"
         clip-path="url(#clipPath3868)"><g
           id="g3870"
           transform="translate(436.3175,604.8943)"><path
             d="m 0,0 c 0,-2.723 -2.207,-4.93 -4.93,-4.93 -2.722,0 -4.929,2.207 -4.929,4.93 0,2.723 2.207,4.93 4.929,4.93 C -2.207,4.93 0,2.723 0,0"
             style="fill:#8f000b;fill-opacity:1;fill-rule:nonzero;stroke:none"
             id="path3872"
             inkscape:connector-curvature="0" /></g></g></g><g
       id="g3874"><g
         id="g3876"><g
           id="g3882"><g
             id="g3884"><path
               d="m 432.011,572.719 c 0,-3.224 2.613,-5.838 5.838,-5.838 v 0 c 3.224,0 5.837,2.614 5.837,5.838 v 0 c 0,3.224 -2.613,5.839 -5.837,5.839 v 0 c -3.225,0 -5.838,-2.615 -5.838,-5.839"
               style="fill:url(#linearGradient3890);stroke:none"
               id="path3892"
               inkscape:connector-curvature="0" /></g></g></g></g><g
       id="g3894"><g
         id="g3896"
         clip-path="url(#clipPath3900)"><g
           id="g3902"
           transform="translate(442.1428,573.8774)"><path
             d="m 0,0 c 0,-1.793 -1.453,-3.246 -3.246,-3.246 -1.793,0 -3.247,1.453 -3.247,3.246 0,1.793 1.454,3.246 3.247,3.246 C -1.453,3.246 0,1.793 0,0"
             style="fill:#8f000b;fill-opacity:1;fill-rule:nonzero;stroke:none"
             id="path3904"
             inkscape:connector-curvature="0" /></g></g></g><g
       id="g3906"><g
         id="g3908"><g
           id="g3914"><g
             id="g3916"><path
               d="M 405.155,551.313 C 367.87,520.104 340.98,440.023 322.468,380.437 v 0 c -2.298,-11.431 -4.104,-21.593 -4.875,-28.622 v 0 c -1.734,-15.785 -1.734,-24.993 2.6,-33.763 v 0 c 4.335,-8.77 11.704,-17.7 20.374,-26.031 v 0 c 8.67,-8.331 19.428,-16.049 26.725,-21.441 v 0 c 1.729,-1.278 3.584,-2.511 5.637,-3.652 v 0 c 4.318,-2.499 8.495,-3.78 12.908,-4.784 v 0 c 4.615,-1.005 10.045,-1.581 16.63,-1.527 v 0 c 19.392,0.162 28.151,4.461 35.567,9.963 v 0 c 7.287,5.407 18.056,13.11 26.725,21.441 v 0 c 1.663,1.598 3.277,3.219 4.832,4.856 v 0 c 6.653,21.118 2.036,51.014 -18.077,57.928 v 0 c -16.276,5.595 -25.828,-5.757 -28.881,-17.11 v 0 c -2.906,-10.811 0.082,-21.622 8.772,-17.795 v 0 c -19.507,-8.589 -30.042,11.404 -18.12,34.035 v 0 c 10.387,19.716 14.51,45.721 -14.277,52.932 v 0 c -10.351,2.594 -28.171,-3.319 -20.905,-14.558 v 0 c 2.027,-3.137 4.575,-2.705 7.641,-2.273 v 0 c 3.657,0.515 8.052,1.029 13.181,-4.514 v 0 c 16.149,-17.457 -7.781,-38.155 -29.578,-22.586 v 0 c -18.652,13.322 -9.725,70.189 5.775,59.117 v 0 c 0.267,-0.191 1.525,-4.842 7.664,-4.27 v 0 c 15.985,1.489 12.068,40.563 -19.069,23.437 v 0 c -2.516,12.898 11.439,57.58 33.214,76.116 v 0 c 8.356,7.112 29.508,22.426 30.187,30.446 v 0 c 0.615,7.252 -2.686,9.761 -7.085,9.761 v 0 c -4.889,10e-4 -11.136,-3.098 -14.878,-6.23"
               style="fill:url(#linearGradient3922);stroke:none"
               id="path3924"
               inkscape:connector-curvature="0" /></g></g></g></g><g
       id="g3926"><g
         id="g3928"
         clip-path="url(#clipPath3932)"><g
           id="g3934"
           transform="translate(381.1895,276.1004)"><path
             d="m 0,0 c -17.418,6.058 -24.957,12.668 -32.565,19.98 -9.054,8.7 -18.177,19.207 -21.278,27.117 -2.595,6.617 -6.218,13.272 -4.595,28.052 0.681,6.201 2.918,15.695 6.022,27.867 11.442,44.871 40.959,135.779 79.713,168.217 3.363,2.815 8.435,5.02 11.547,5.02 0.804,0 1.306,-0.156 1.448,-0.31 0.269,-0.292 0.669,-1.426 0.466,-3.823 -0.517,-4.438 -16.486,-17.288 -22.498,-22.125 -2.293,-1.846 -4.274,-3.44 -5.882,-4.808 -23.38,-19.901 -35.757,-60.001 -40.402,-82.489 -0.743,-3.594 -2.076,-14.531 -2.076,-14.531 0,0 11.078,9.665 15.129,12.406 3.794,2.567 7.906,3.876 10.949,3.876 2.852,0 5.314,-1.034 6.941,-3.049 1.528,-1.891 2.165,-6.22 0.584,-8.303 -1.427,-1.881 -3.925,-4.098 -6.811,-2.53 -5.255,2.854 -1.168,6.292 -1.168,6.292 0,0 -17.97,2.271 -29.776,-32.046 -7.849,-22.813 -6.401,-62.45 5.017,-71.445 7.258,-5.719 17.299,-7.439 27.678,-2.768 16.786,7.553 26.71,31.689 30.223,39.97 3.26,7.687 3.558,18.929 -3.127,25.847 -2.464,2.55 -7.802,5.681 -14.243,3.126 -4.03,-1.598 -7.584,-3.215 -9.658,-0.764 -1.529,1.807 -0.834,4.447 0.069,5.42 1.125,1.21 4.098,2.848 9.102,2.848 1.992,0 4.311,-0.382 6.045,-0.834 8.268,-2.153 13.554,-6.508 16.093,-12.191 3.601,-8.059 1.617,-20.367 -5.442,-33.769 -7.011,-13.306 -14.012,-32.378 -8.173,-47.428 7.673,-19.78 28.96,-15.754 38.274,-9.212 30.605,21.496 13.281,48.574 1.199,38.238 -0.191,-0.163 3.545,-6.544 -3.794,-10.213 -5.19,-2.595 -9.86,1.557 -10.311,6.225 -0.673,6.965 5.146,17.351 16.192,17.351 2.402,0 5.008,-0.477 7.745,-1.418 C 84.823,68.233 89.801,39.506 79.476,22.982 72.656,12.066 61.27,5.334 53.714,1.816 46.189,-1.687 34.122,-4.411 24.781,-4.411 15.676,-4.411 5.968,-2.076 0,0"
             style="fill:#8f000b;fill-opacity:1;fill-rule:nonzero;stroke:none"
             id="path3936"
             inkscape:connector-curvature="0" /></g></g></g><g
       id="g3938"><g
         id="g3940"><g
           id="g3946"><g
             id="g3948"><path
               d="m 537.585,700.77 c -6.711,-1.222 -12.928,-2.427 -13.16,-2.745 v 0 c -0.401,-0.553 -1.751,-0.574 -2.43,-0.655 v 0 C 520.22,697.157 474.6,683.713 460.423,640.053 v 0 c -4.595,-14.15 -7.249,-33.275 2.254,-46.706 v 0 c 10.438,-14.75 31.609,-23.28 43.321,-4.584 v 0 c 13.32,21.263 -15.46,40.365 -24.212,20.266 v 0 c -6.143,5.181 -5.674,12.554 0.084,20.232 v 0 c 3.114,4.152 8.449,8.027 16.608,5.19 v 0 c 11.935,-4.152 16.858,0.47 17.644,5.19 v 0 c 1.557,9.341 -5.189,9.341 -5.189,9.341 v 0 c 0,0 10.66,5.898 20.561,1.901 v 0 c 1.019,0.188 30.353,4.265 30.353,4.265 v 0 l 15.064,3.04 c 1.018,0.143 101.968,14.341 120.467,16.883 v 0 c 2.791,0.383 5.46,0.578 7.929,0.578 v 0 c 11.67,0 17.433,-4.316 20.876,-6.893 v 0 c 0.715,-0.537 1.392,-1.042 1.791,-1.248 v 0 c 1.889,-0.976 3.436,-2.677 5.577,-5.031 v 0 c 5.034,-5.535 13.46,-14.797 32.48,-22.37 v 0 c 4.546,-1.81 14.12,-3.956 33.969,-4.081 v 0 64.744 z"
               style="fill:url(#linearGradient3954);stroke:none"
               id="path3956"
               inkscape:connector-curvature="0" /></g></g></g></g><g
       id="g3958"><g
         id="g3960"
         clip-path="url(#clipPath3964)"><g
           id="g3966"
           transform="translate(800,696.7273)"><path
             d="m 0,0 c 0,0 -253.777,1.427 -272.201,-2.984 -21.956,-5.257 -48.178,-21.408 -57.173,-39.745 -8.996,-18.337 -9.994,-41.844 -5.12,-53.233 3.746,-8.753 15.827,-17.571 26.012,-14.929 12.06,3.129 13.625,17.993 5.085,21.905 -6.317,2.893 -12.582,-3.455 -11.735,-11.604 0.113,-1.089 -6.217,-5.518 -12.321,3.976 -7.229,11.246 -2.228,23.986 2.577,30.793 4.152,5.882 10.881,9.887 15.379,10.925 3.337,0.77 8.714,-2.926 11.481,-3.618 2.768,-0.692 8.636,-0.551 9.882,3.062 0.696,2.018 -1.08,6.252 -4.941,5.149 -2.922,-0.835 -2.087,-3.549 -2.087,-3.549 0,0 -2.854,9.603 -13.5,7.446 -8.251,-1.672 -17.188,-11.83 -17.188,-11.83 5.984,11.134 36.312,45.565 49.411,33.844 13.147,-11.763 44.977,-4.151 73.348,5.536 35.203,12.021 81.835,9.333 100.854,10.552 36.414,2.336 49.994,-22.834 70.061,-32.176 C -12.109,-49.821 0,-47.918 0,-47.918 Z"
             style="fill:#8f000b;fill-opacity:1;fill-rule:nonzero;stroke:none"
             id="path3968"
             inkscape:connector-curvature="0" /></g></g></g></g></svg>